<?xml version="1.0" standalone="no"?><!DOCTYPE svg PUBLIC "-//W3C//DTD SVG 1.1//EN" "http://www.w3.org/Graphics/SVG/1.1/DTD/svg11.dtd"><svg t="1493732531227" class="icon" style="" viewBox="0 0 1024 1024" version="1.1" xmlns="http://www.w3.org/2000/svg" p-id="2083" xmlns:xlink="http://www.w3.org/1999/xlink" width="200" height="200"><defs><style type="text/css"></style></defs><path d="M731.725229 643.835138H685.279484l-16.144869-16.057125a378.643969 378.643969 0 0 0 91.780069-247.349919C760.885436 170.310817 590.574619 0 380.428094 0 170.310817 0 0 170.310817 0 380.428094c0 210.146525 170.310817 380.457342 380.428094 380.457342 94.529376 0 180.752335-34.658822 247.291423-91.663077l16.174116 16.027877v46.358001l292.508755 292.128531L1023.678273 936.460884l-291.953044-292.625746z m-351.267887 0a263.3193 263.3193 0 0 1-263.407044-263.407044 263.407044 263.407044 0 1 1 263.377796 263.377796z" fill="#5366D3" p-id="2084"></path></svg>